# xmcd CD database file
#
# Track frame offsets:
#	150
#	22556
#	39858
#	52192
#	74399
#	91739
#
# Disc length: 1374 seconds
#
# Revision: 0
# Processed by: cddbd v1.5.2PL0 Copyright (c) Steve Scherf et al.
# Submitted via: CDex 1.70beta3
#
DISCID=3d055c06
DTITLE=堀江由衣 - インモラリスト
DYEAR=1900
DGENRE=声優
TTITLE0=インモラリスト
TTITLE1=True truly love
TTITLE2=HOLIDAY
TTITLE3=インモラリスト (off vocal version)
TTITLE4=True truly love (off vocal version)
TTITLE5=HOLIDAY (off vocal version)
EXTD=
EXTT0=
EXTT1=
EXTT2=
EXTT3=
EXTT4=
EXTT5=
PLAYORDER=
